<?xml version="1.0" standalone="no"?><!DOCTYPE svg PUBLIC "-//W3C//DTD SVG 1.1//EN" "http://www.w3.org/Graphics/SVG/1.1/DTD/svg11.dtd"><svg t="1716188249519" class="icon" viewBox="0 0 1024 1024" version="1.1" xmlns="http://www.w3.org/2000/svg" p-id="15381" xmlns:xlink="http://www.w3.org/1999/xlink" width="200" height="200"><path d="M255.744 887.1424l253.44-253.44 43.4688 43.4688-253.44 253.44z" p-id="15382"></path><path d="M901.12 143.36h-261.12c-51.2 0-97.28 25.6-128 66.56-25.6-40.96-71.68-66.56-128-66.56H122.88c-10.24 0-20.48 10.24-20.48 20.48v624.64c0 10.24 10.24 20.48 20.48 20.48h117.76l61.44-61.44H163.84V204.8h220.16c25.6 0 51.2 10.24 66.56 25.6 20.48 20.48 25.6 40.96 25.6 66.56v271.36l66.56-66.56v-204.8c0-25.6 10.24-46.08 25.6-66.56 20.48-15.36 46.08-25.6 71.68-25.6h220.16v542.72h-271.36l-61.44 61.44h373.76c10.24 0 20.48-10.24 20.48-20.48V163.84c0-10.24-10.24-20.48-20.48-20.48z" p-id="15383"></path><path d="M546.304 599.1936l65.1264-65.1776 43.4688 43.4176-65.1776 65.1776z" p-id="15384"></path></svg>