<?xml version="1.0" standalone="no"?><!DOCTYPE svg PUBLIC "-//W3C//DTD SVG 1.1//EN" "http://www.w3.org/Graphics/SVG/1.1/DTD/svg11.dtd"><svg t="1716042168904" class="icon" viewBox="0 0 1024 1024" version="1.1" xmlns="http://www.w3.org/2000/svg" p-id="3250" xmlns:xlink="http://www.w3.org/1999/xlink" width="200" height="200"><path d="M384 96a31.146667 31.146667 0 0 1 8.96-23.04 31.146667 31.146667 0 0 1 23.04-8.96 31.146667 31.146667 0 0 1 23.04 8.96c5.973333 6.016 8.96 13.696 8.96 23.04v786.986667a28.757333 28.757333 0 0 1-5.504 17.493333 35.541333 35.541333 0 0 1-14.506667 11.52 29.482667 29.482667 0 0 1-18.474666 2.005333 32.256 32.256 0 0 1-16.512-8.96L96 608a30.506667 30.506667 0 0 1-8.96-22.485333c0-9.045333 2.986667-16.512 8.96-22.528a31.104 31.104 0 0 1 22.485333-10.026667c8.32 0 15.829333 3.370667 22.528 10.026667L384 806.058667V96z m192 44.970667c0-6.656 1.834667-12.501333 5.504-17.493334a35.498667 35.498667 0 0 1 14.506667-11.477333 29.525333 29.525333 0 0 1 18.474666-2.005333 32.213333 32.213333 0 0 1 16.512 8.96L928 416c5.973333 5.973333 8.96 13.482667 8.96 22.485333 0 9.045333-2.986667 16.512-8.96 22.528a31.104 31.104 0 0 1-22.485333 10.026667 31.104 31.104 0 0 1-22.485334-10.026667L640 217.941333V928a31.146667 31.146667 0 0 1-8.96 23.04 31.146667 31.146667 0 0 1-23.04 8.96 31.146667 31.146667 0 0 1-23.04-8.96 31.146667 31.146667 0 0 1-8.96-23.04V140.970667z" fill="#000000" fill-opacity=".65" p-id="3251"></path></svg>