<?xml version="1.0" standalone="no"?><!DOCTYPE svg PUBLIC "-//W3C//DTD SVG 1.1//EN" "http://www.w3.org/Graphics/SVG/1.1/DTD/svg11.dtd"><svg t="1716188507463" class="icon" viewBox="0 0 1024 1024" version="1.1" xmlns="http://www.w3.org/2000/svg" p-id="20979" xmlns:xlink="http://www.w3.org/1999/xlink" width="200" height="200"><path d="M379.392 870.4c-92.672-44.828-171.918-143.19-198.03-245.76-24.576-96.484-6.258-200.932 50.517-288.54 48.81-75.208 117.191-125.896 217.316-161.11 24.69-8.704 44.942-18.375 44.942-21.56 0-3.13-10.923-16.612-24.292-29.924-27.306-27.193-29.582-36.921-12.401-54.272 19.91-20.139 36.58-16.327 71.68 16.327 16.839 15.644 46.592 41.301 66.104 57.003 38.23 30.72 47.616 44.6 42.895 63.601-2.674 10.468-57.856 82.774-98.816 129.48-19.229 21.902-32.086 27.59-46.82 20.82a44.373 44.373 0 0 1-17.75-16.497c-7.11-13.54-0.682-27.762 28.787-63.374 10.808-13.085 19.74-25.6 19.74-27.705 0-7.794-25.657-10.013-54.955-4.722-51.257 9.216-96.825 34.987-141.994 80.213-22.528 22.585-45.227 50.745-52.167 64.683-48.925 98.361-46.536 211.797 6.371 302.763 24.462 41.927 81.237 95.858 122.937 116.622 96.825 48.242 204.345 45.397 294.684-7.737C806.4 737.166 867.556 601.26 842.183 480.825c-8.704-41.529-34.36-98.247-59.278-131.3-22.699-30.037-28.274-43.235-24.633-58.026 3.925-15.759 26.34-24.406 42.382-16.27 28.445 14.279 82.375 99.669 99.84 157.98 13.938 46.364 12.686 155.079-2.275 203.947-13.085 42.666-46.251 108.373-69.632 138.069-24.178 30.72-78.507 75.207-116.054 95.232-59.164 31.403-143.417 46.08-213.56 37.205-46.308-5.86-70.145-13.312-119.581-37.262z" p-id="20980"></path></svg>