<?xml version="1.0" standalone="no"?><!DOCTYPE svg PUBLIC "-//W3C//DTD SVG 1.1//EN" "http://www.w3.org/Graphics/SVG/1.1/DTD/svg11.dtd"><svg t="1718024060454" class="icon" viewBox="0 0 1024 1024" version="1.1" xmlns="http://www.w3.org/2000/svg" p-id="7774" xmlns:xlink="http://www.w3.org/1999/xlink" width="200" height="200"><path d="M967.264 317.472c-24.928-58.88-60.544-111.776-105.952-157.152A493.12 493.12 0 0 0 511.68 15.52 492.736 492.736 0 0 0 162.048 160.32 493.12 493.12 0 0 0 17.216 509.92 493.12 493.12 0 0 0 162.048 859.52a492.576 492.576 0 0 0 349.632 144.8 492.736 492.736 0 0 0 349.632-144.8 493.12 493.12 0 0 0 144.8-349.6c0-66.72-13.056-131.488-38.848-192.448zM511.68 951.136c-243.296 0-441.248-197.92-441.248-441.216S268.384 68.704 511.68 68.704c243.264 0.032 441.216 197.952 441.216 441.216S754.976 951.136 511.68 951.136z m-45.536-628.704a45.504 45.504 0 0 0 91.008 0 45.504 45.504 0 0 0-91.008 0z m76.576 389.44a31.072 31.072 0 0 1-62.144 0v-242.848a31.072 31.072 0 0 1 62.144 0v242.848z" p-id="7775"></path></svg>