<?xml version="1.0" standalone="no"?><!DOCTYPE svg PUBLIC "-//W3C//DTD SVG 1.1//EN" "http://www.w3.org/Graphics/SVG/1.1/DTD/svg11.dtd"><svg t="1719057076005" class="icon" viewBox="0 0 1024 1024" version="1.1" xmlns="http://www.w3.org/2000/svg" p-id="4785" xmlns:xlink="http://www.w3.org/1999/xlink" width="200" height="200"><path d="M451.84 499.84l-268.8 325.76a43.52 43.52 0 0 0 5.76 60.16 42.24 42.24 0 0 0 60.16-5.76l267.52-323.84a132.48 132.48 0 0 1-64.64-56.32z" fill="#070001" p-id="4786"></path><path d="M835.84 423.04L704 448a18.56 18.56 0 0 0-12.8 10.88l-53.76 128a17.92 17.92 0 0 1-32.64 0L533.76 470.4a17.28 17.28 0 0 0-14.72-8.96L384 448a18.56 18.56 0 0 1-11.52-30.72L462.72 320a17.92 17.92 0 0 0 4.48-19.2l-30.72-133.76a18.56 18.56 0 0 1 25.6-21.12l128 56.96a18.56 18.56 0 0 0 17.28 0l117.76-70.4a17.92 17.92 0 0 1 27.52 17.28l-15.36 136.96a19.2 19.2 0 0 0 6.4 16l103.68 90.24a17.92 17.92 0 0 1-11.52 30.08zM309.76 365.44l-39.04 7.68h-3.84l-15.36 36.48a5.76 5.76 0 0 1-9.6 0l-19.84-34.56a5.12 5.12 0 0 0-3.84 0l-39.68-3.84a5.76 5.76 0 0 1-3.84-8.96l26.88-28.8a5.12 5.12 0 0 0 0-5.12L192 291.2a5.76 5.76 0 0 1 7.68-6.4l35.84 16.64a5.12 5.12 0 0 0 5.12 0l33.92-20.48a5.76 5.76 0 0 1 8.32 5.76l-4.48 39.04a5.12 5.12 0 0 0 0 4.48l30.08 26.24a5.76 5.76 0 0 1 1.28 8.96zM671.36 743.04l-36.48 7.68h-3.84l-14.72 34.56a5.12 5.12 0 0 1-8.96 0l-18.56-33.28a4.48 4.48 0 0 0-3.84 0l-37.76-3.84a5.12 5.12 0 0 1-3.2-8.32l25.6-27.52a5.76 5.76 0 0 0 0-4.48l-8.32-37.12a5.12 5.12 0 0 1 7.04-5.12l34.56 15.36a3.84 3.84 0 0 0 4.48 0l32-19.2a5.12 5.12 0 0 1 7.68 5.12l-3.84 37.12a3.84 3.84 0 0 0 0 4.48l28.8 24.96a4.48 4.48 0 0 1-0.64 9.6z" fill="#231815" p-id="4787"></path></svg>