<?xml version="1.0" standalone="no"?><!DOCTYPE svg PUBLIC "-//W3C//DTD SVG 1.1//EN" "http://www.w3.org/Graphics/SVG/1.1/DTD/svg11.dtd"><svg t="1713580386660" class="icon" viewBox="0 0 1024 1024" version="1.1" xmlns="http://www.w3.org/2000/svg" p-id="16737" xmlns:xlink="http://www.w3.org/1999/xlink" width="200" height="200"><path d="M414.72 332.288a31.1296 31.1296 0 0 1-9.1136 22.016l-197.376 197.376-2.2528 62.208 197.376 197.376a31.1296 31.1296 0 1 1-43.9808 44.032l-231.0144-231.0656q-16.7424-16.6912-16.7424-40.3456 0-23.6032 16.7424-40.3456L361.6256 310.272a31.1296 31.1296 0 0 1 53.0944 22.016z" p-id="16738" fill="#fff"></path><path d="M204.8 558.08h512q29.696 0 50.688-20.992 20.992-20.992 20.992-50.688V286.72a30.72 30.72 0 1 1 61.44 0v199.68q0 55.1424-38.9632 94.1056-39.0144 39.0144-94.1568 39.0144H204.8v-61.44z" p-id="16739" fill="#fff"></path></svg>